<?xml version="1.0" encoding="UTF-8" standalone="no"?>
<!-- Created with Inkscape (http://www.inkscape.org/) -->

<svg
   xmlns:dc="http://purl.org/dc/elements/1.1/"
   xmlns:cc="http://creativecommons.org/ns#"
   xmlns:rdf="http://www.w3.org/1999/02/22-rdf-syntax-ns#"
   xmlns:svg="http://www.w3.org/2000/svg"
   xmlns="http://www.w3.org/2000/svg"
   xmlns:xlink="http://www.w3.org/1999/xlink"
   xmlns:sodipodi="http://sodipodi.sourceforge.net/DTD/sodipodi-0.dtd"
   xmlns:inkscape="http://www.inkscape.org/namespaces/inkscape"
   width="36"
   height="18"
   viewBox="0 0 36.000002 18"
   id="svg2"
   version="1.1"
   inkscape:version="0.91 r13725"
   sodipodi:docname="monobank.svg">
  <defs
     id="defs4">
    <linearGradient
       inkscape:collect="always"
       id="linearGradient4181">
      <stop
         style="stop-color:#1e1e1e;stop-opacity:1;"
         offset="0"
         id="stop4183" />
      <stop
         style="stop-color:#1e1e1e;stop-opacity:0;"
         offset="1"
         id="stop4185" />
    </linearGradient>
    <linearGradient
       inkscape:collect="always"
       xlink:href="#linearGradient4181"
       id="linearGradient4187"
       x1="-646.21429"
       y1="532.36218"
       x2="9.0714111"
       y2="532.36218"
       gradientUnits="userSpaceOnUse" />
  </defs>
  <sodipodi:namedview
     id="base"
     pagecolor="#ffffff"
     bordercolor="#666666"
     borderopacity="1.0"
     inkscape:pageopacity="0.0"
     inkscape:pageshadow="2"
     inkscape:zoom="11.2"
     inkscape:cx="50.460206"
     inkscape:cy="1.0570734"
     inkscape:document-units="px"
     inkscape:current-layer="layer1"
     showgrid="true"
     units="px"
     showguides="true"
     inkscape:guide-bbox="true"
     inkscape:window-width="1920"
     inkscape:window-height="1027"
     inkscape:window-x="-8"
     inkscape:window-y="-8"
     inkscape:window-maximized="1">
    <inkscape:grid
       type="xygrid"
       id="grid4323" />
    <sodipodi:guide
       position="18.000001,15"
       orientation="1,0"
       id="guide4328" />
  </sodipodi:namedview>
  <metadata
     id="metadata7">
    <rdf:RDF>
      <cc:Work
         rdf:about="">
        <dc:format>image/svg+xml</dc:format>
        <dc:type
           rdf:resource="http://purl.org/dc/dcmitype/StillImage" />
        <dc:title></dc:title>
      </cc:Work>
    </rdf:RDF>
  </metadata>
  <g
     inkscape:label="Layer 1"
     inkscape:groupmode="layer"
     id="layer1"
     transform="translate(0,-1034.3622)">
    <rect
       style="opacity:0;fill:url(#linearGradient4187);fill-opacity:1;stroke:#414040;stroke-width:1;stroke-linecap:square;stroke-linejoin:miter;stroke-miterlimit:4;stroke-dasharray:none;stroke-dashoffset:0;stroke-opacity:1"
       id="rect4179"
       width="654.28571"
       height="525.71429"
       x="-645.71429"
       y="269.50507" />
    <text
       xml:space="preserve"
       style="font-style:normal;font-weight:normal;font-size:6.25px;line-height:125%;font-family:sans-serif;letter-spacing:1px;word-spacing:0px;fill:#000000;fill-opacity:1;stroke:none;stroke-width:1px;stroke-linecap:butt;stroke-linejoin:miter;stroke-opacity:1"
       x="-45.714287"
       y="549.50507"
       id="text4263"
       sodipodi:linespacing="125%"><tspan
         sodipodi:role="line"
         id="tspan4265"
         x="-45.714287"
         y="549.50507" /></text>
    <text
       xml:space="preserve"
       style="font-style:normal;font-weight:normal;font-size:90px;line-height:125%;font-family:sans-serif;letter-spacing:0px;word-spacing:0px;fill:#c7e900;fill-opacity:1;stroke:none;stroke-width:1px;stroke-linecap:butt;stroke-linejoin:miter;stroke-opacity:1"
       x="-101.42857"
       y="595.21936"
       id="text4267"
       sodipodi:linespacing="125%"><tspan
         sodipodi:role="line"
         id="tspan4269"
         x="-101.42857"
         y="595.21936" /></text>
    <path
       style="opacity:1;fill:#2c2f38;fill-opacity:1;fill-rule:nonzero;stroke:none;stroke-width:1;stroke-linecap:square;stroke-linejoin:miter;stroke-miterlimit:4;stroke-dasharray:none;stroke-dashoffset:0;stroke-opacity:1"
       d="M 5.7382812 0.05859375 C 3.1207238 0.05859375 1.0136719 2.1656457 1.0136719 4.7832031 L 1.0136719 11.333984 C 1.0136719 13.951542 3.1207238 16.058594 5.7382812 16.058594 L 12.289062 16.058594 C 14.90662 16.058594 17.013672 13.951542 17.013672 11.333984 L 17.013672 4.7832031 C 17.013672 2.1656457 14.90662 0.05859375 12.289062 0.05859375 L 5.7382812 0.05859375 z M 8.484375 6.453125 C 8.896406 6.453125 9.2152185 6.5648279 9.4394531 6.7890625 C 9.6650892 7.0132971 9.7773437 7.3207783 9.7773438 7.7089844 C 9.7773438 8.0971905 9.6645375 8.4027185 9.4375 8.6269531 C 9.2118639 8.8497862 8.8936031 8.9609375 8.484375 8.9609375 C 8.0751469 8.9609375 7.7582875 8.8497862 7.53125 8.6269531 C 7.3056139 8.4027185 7.1914062 8.0971905 7.1914062 7.7089844 C 7.1914062 7.3179753 7.3061656 7.0099425 7.5332031 6.7871094 C 7.7616421 6.5642763 8.0779498 6.453125 8.484375 6.453125 z M 14.513672 6.453125 C 14.925703 6.453125 15.244515 6.5648279 15.46875 6.7890625 C 15.694386 7.0132971 15.806641 7.3207783 15.806641 7.7089844 C 15.806641 8.0971905 15.693834 8.4027185 15.466797 8.6269531 C 15.241161 8.8497862 14.9229 8.9609375 14.513672 8.9609375 C 14.104444 8.9609375 13.787584 8.8497862 13.560547 8.6269531 C 13.334911 8.4027185 13.220703 8.0971905 13.220703 7.7089844 C 13.220703 7.3179753 13.335462 7.0099425 13.5625 6.7871094 C 13.790939 6.5642763 14.107247 6.453125 14.513672 6.453125 z M 4.3339844 6.4609375 C 4.4895471 6.4609375 4.625016 6.4963329 4.7441406 6.5664062 C 4.8632652 6.6350781 4.9581202 6.736553 5.0253906 6.8710938 C 5.176749 6.7435603 5.3238473 6.6431887 5.4667969 6.5703125 C 5.6097464 6.4974363 5.7493751 6.4609375 5.8867188 6.4609375 C 6.1417856 6.4609375 6.3350591 6.5386464 6.4667969 6.6914062 C 6.5999362 6.8441661 6.6660156 7.0642619 6.6660156 7.3515625 L 6.6660156 8.8867188 L 5.90625 8.8867188 L 5.90625 7.7089844 C 5.90625 7.5926627 5.9020902 7.4939461 5.8964844 7.4140625 C 5.89228 7.3341789 5.878742 7.2692028 5.8535156 7.21875 C 5.8296907 7.1682972 5.7920886 7.1317985 5.7402344 7.109375 C 5.6883801 7.0855501 5.6153826 7.0722656 5.5214844 7.0722656 C 5.4584184 7.0722656 5.3962005 7.0849984 5.3359375 7.1074219 C 5.2756745 7.1284439 5.2021253 7.164391 5.1152344 7.2148438 L 5.1152344 8.8867188 L 4.3535156 8.8867188 L 4.3535156 7.7089844 C 4.3535156 7.5940642 4.351309 7.4958992 4.3457031 7.4160156 C 4.3400973 7.3347306 4.3240545 7.2692028 4.2988281 7.21875 C 4.2736017 7.1682972 4.235448 7.1317985 4.1835938 7.109375 C 4.133141 7.0855501 4.0612468 7.0722656 3.96875 7.0722656 C 3.8944723 7.0722656 3.8220264 7.0883084 3.7519531 7.1191406 C 3.6818798 7.1485714 3.6205118 7.1812086 3.5644531 7.2148438 L 3.5644531 8.8867188 L 2.8066406 8.8867188 L 2.8066406 6.5273438 L 3.5644531 6.5273438 L 3.5644531 6.7871094 C 3.6947895 6.6848023 3.8183754 6.6043351 3.9375 6.546875 C 4.0566246 6.4894149 4.1896334 6.4609375 4.3339844 6.4609375 z M 11.882812 6.4609375 C 12.137879 6.4609375 12.335566 6.5350383 12.478516 6.6835938 C 12.622867 6.8321492 12.695313 7.0558531 12.695312 7.3515625 L 12.695312 8.8867188 L 11.935547 8.8867188 L 11.935547 7.7167969 C 11.935547 7.6214972 11.929732 7.527492 11.919922 7.4335938 C 11.910112 7.3382941 11.892966 7.2675032 11.869141 7.2226562 C 11.841111 7.170802 11.800751 7.1331999 11.746094 7.109375 C 11.692838 7.0855501 11.616232 7.0722656 11.519531 7.0722656 C 11.450859 7.0722656 11.382022 7.0849984 11.310547 7.1074219 C 11.240474 7.1298453 11.164718 7.1657924 11.082031 7.2148438 L 11.082031 8.8867188 L 10.324219 8.8867188 L 10.324219 6.5273438 L 11.082031 6.5273438 L 11.082031 6.7871094 C 11.216572 6.6819994 11.345421 6.6009805 11.46875 6.5449219 C 11.59348 6.4888632 11.731454 6.4609375 11.882812 6.4609375 z M 8.484375 6.9804688 C 8.4114988 6.9804688 8.3465226 6.9901451 8.2890625 7.0097656 C 8.2330039 7.0293862 8.1788074 7.0680915 8.1269531 7.1269531 C 8.0807047 7.1816103 8.0436543 7.2582159 8.015625 7.3535156 C 7.9889971 7.4488153 7.9765625 7.5685396 7.9765625 7.7128906 C 7.9765625 7.8418255 7.9878938 7.9535284 8.0117188 8.0488281 C 8.0355437 8.1427264 8.0709391 8.2179305 8.1171875 8.2753906 C 8.1620344 8.3300478 8.2156792 8.371258 8.2773438 8.3964844 C 8.3404097 8.4217108 8.4123039 8.4335938 8.4921875 8.4335938 C 8.5608593 8.4335938 8.6258355 8.4228141 8.6875 8.4003906 C 8.750566 8.3765657 8.8022577 8.3359072 8.8457031 8.28125 C 8.8947544 8.220987 8.9312532 8.1504942 8.9550781 8.0664062 C 8.9803045 7.9809168 8.9941406 7.8628475 8.9941406 7.7128906 C 8.9941406 7.5741455 8.9803045 7.4571795 8.9550781 7.3632812 C 8.9298517 7.269383 8.8964094 7.1947305 8.8515625 7.1386719 C 8.8067156 7.0812118 8.7525191 7.0394499 8.6894531 7.015625 C 8.6263871 6.9918001 8.5572512 6.9804687 8.484375 6.9804688 z M 14.513672 6.9804688 C 14.440796 6.9804688 14.375819 6.9901451 14.318359 7.0097656 C 14.262301 7.0293862 14.208104 7.0680915 14.15625 7.1269531 C 14.110002 7.1816103 14.072951 7.2582159 14.044922 7.3535156 C 14.018294 7.4488153 14.005859 7.5685396 14.005859 7.7128906 C 14.005859 7.8418255 14.017191 7.9535284 14.041016 8.0488281 C 14.064841 8.1427264 14.100236 8.2179305 14.146484 8.2753906 C 14.191331 8.3300478 14.244976 8.371258 14.306641 8.3964844 C 14.369707 8.4217108 14.439648 8.4335938 14.519531 8.4335938 C 14.588203 8.4335938 14.655132 8.4228141 14.716797 8.4003906 C 14.779863 8.3765657 14.831555 8.3359072 14.875 8.28125 C 14.924051 8.220987 14.96055 8.1504942 14.984375 8.0664062 C 15.009601 7.9809168 15.023438 7.8628475 15.023438 7.7128906 C 15.023438 7.5741455 15.009601 7.4571795 14.984375 7.3632812 C 14.959149 7.269383 14.923753 7.1947305 14.878906 7.1386719 C 14.834059 7.0812118 14.781816 7.0394499 14.71875 7.015625 C 14.655684 6.9918001 14.586548 6.9804687 14.513672 6.9804688 z "
       transform="translate(0,1034.3622)"
       id="rect4209" />
    <path
       style="opacity:1;fill:#ffcc00;fill-opacity:1;fill-rule:nonzero;stroke:none;stroke-width:1;stroke-linecap:square;stroke-linejoin:miter;stroke-miterlimit:4;stroke-dasharray:none;stroke-dashoffset:0;stroke-opacity:1"
       d="M 23.738281 0.05859375 C 21.120724 0.05859375 19.013672 2.1656454 19.013672 4.7832031 L 19.013672 11.333984 C 19.013672 13.951542 21.120724 16.058594 23.738281 16.058594 L 30.289062 16.058594 C 32.90662 16.058594 35.013672 13.951542 35.013672 11.333984 L 35.013672 4.7832031 C 35.013672 2.1656454 32.90662 0.05859375 30.289062 0.05859375 L 23.738281 0.05859375 z M 26.484375 6.453125 C 26.896406 6.453125 27.215219 6.5648279 27.439453 6.7890625 C 27.665089 7.0132971 27.777344 7.3207783 27.777344 7.7089844 C 27.777344 8.0971905 27.664538 8.4027185 27.4375 8.6269531 C 27.211864 8.8497862 26.893603 8.9609375 26.484375 8.9609375 C 26.075147 8.9609375 25.758288 8.8497862 25.53125 8.6269531 C 25.305614 8.4027185 25.191406 8.0971905 25.191406 7.7089844 C 25.191406 7.3179753 25.306166 7.0099425 25.533203 6.7871094 C 25.761642 6.5642763 26.07795 6.453125 26.484375 6.453125 z M 32.513672 6.453125 C 32.925703 6.453125 33.244515 6.5648279 33.46875 6.7890625 C 33.694386 7.0132971 33.806641 7.3207783 33.806641 7.7089844 C 33.806641 8.0971905 33.693834 8.4027185 33.466797 8.6269531 C 33.241161 8.8497862 32.9229 8.9609375 32.513672 8.9609375 C 32.104444 8.9609375 31.787584 8.8497862 31.560547 8.6269531 C 31.334911 8.4027185 31.220703 8.0971905 31.220703 7.7089844 C 31.220703 7.3179753 31.335462 7.0099425 31.5625 6.7871094 C 31.790939 6.5642763 32.107247 6.453125 32.513672 6.453125 z M 22.333984 6.4609375 C 22.489547 6.4609375 22.625016 6.4963329 22.744141 6.5664062 C 22.863265 6.6350781 22.95812 6.736553 23.025391 6.8710938 C 23.176749 6.7435603 23.323847 6.6431887 23.466797 6.5703125 C 23.609746 6.4974363 23.749375 6.4609375 23.886719 6.4609375 C 24.141786 6.4609375 24.335059 6.5386464 24.466797 6.6914062 C 24.599936 6.8441661 24.666016 7.0642619 24.666016 7.3515625 L 24.666016 8.8867188 L 23.90625 8.8867188 L 23.90625 7.7089844 C 23.90625 7.5926627 23.90209 7.4939461 23.896484 7.4140625 C 23.89228 7.3341789 23.878742 7.2692028 23.853516 7.21875 C 23.829691 7.1682972 23.792089 7.1317985 23.740234 7.109375 C 23.68838 7.0855501 23.615383 7.0722656 23.521484 7.0722656 C 23.458418 7.0722656 23.396201 7.0849984 23.335938 7.1074219 C 23.275674 7.1284439 23.202125 7.164391 23.115234 7.2148438 L 23.115234 8.8867188 L 22.353516 8.8867188 L 22.353516 7.7089844 C 22.353516 7.5940642 22.351309 7.4958992 22.345703 7.4160156 C 22.340097 7.3347306 22.324055 7.2692028 22.298828 7.21875 C 22.273602 7.1682972 22.235448 7.1317985 22.183594 7.109375 C 22.133141 7.0855501 22.061247 7.0722656 21.96875 7.0722656 C 21.894472 7.0722656 21.822026 7.0883084 21.751953 7.1191406 C 21.68188 7.1485714 21.620512 7.1812086 21.564453 7.2148438 L 21.564453 8.8867188 L 20.806641 8.8867188 L 20.806641 6.5273438 L 21.564453 6.5273438 L 21.564453 6.7871094 C 21.694789 6.6848023 21.818375 6.6043351 21.9375 6.546875 C 22.056625 6.4894149 22.189633 6.4609375 22.333984 6.4609375 z M 29.882812 6.4609375 C 30.137879 6.4609375 30.335566 6.5350383 30.478516 6.6835938 C 30.622867 6.8321492 30.695313 7.0558531 30.695312 7.3515625 L 30.695312 8.8867188 L 29.935547 8.8867188 L 29.935547 7.7167969 C 29.935547 7.6214972 29.929732 7.527492 29.919922 7.4335938 C 29.910112 7.3382941 29.892966 7.2675032 29.869141 7.2226562 C 29.841111 7.170802 29.800751 7.1331999 29.746094 7.109375 C 29.692838 7.0855501 29.616232 7.0722656 29.519531 7.0722656 C 29.450859 7.0722656 29.382022 7.0849984 29.310547 7.1074219 C 29.240474 7.1298453 29.164718 7.1657924 29.082031 7.2148438 L 29.082031 8.8867188 L 28.324219 8.8867188 L 28.324219 6.5273438 L 29.082031 6.5273438 L 29.082031 6.7871094 C 29.216572 6.6819994 29.345421 6.6009805 29.46875 6.5449219 C 29.59348 6.4888632 29.731454 6.4609375 29.882812 6.4609375 z M 26.484375 6.9804688 C 26.411499 6.9804688 26.346523 6.9901451 26.289062 7.0097656 C 26.233004 7.0293862 26.178807 7.0680915 26.126953 7.1269531 C 26.080705 7.1816103 26.043654 7.2582159 26.015625 7.3535156 C 25.988997 7.4488153 25.976563 7.5685396 25.976562 7.7128906 C 25.976562 7.8418255 25.987894 7.9535284 26.011719 8.0488281 C 26.035544 8.1427264 26.070939 8.2179305 26.117188 8.2753906 C 26.162034 8.3300478 26.215679 8.371258 26.277344 8.3964844 C 26.34041 8.4217108 26.412304 8.4335938 26.492188 8.4335938 C 26.560859 8.4335938 26.625835 8.4228141 26.6875 8.4003906 C 26.750566 8.3765657 26.802258 8.3359072 26.845703 8.28125 C 26.894754 8.220987 26.931253 8.1504942 26.955078 8.0664062 C 26.980305 7.9809168 26.994141 7.8628475 26.994141 7.7128906 C 26.994141 7.5741455 26.980305 7.4571795 26.955078 7.3632812 C 26.929852 7.269383 26.896409 7.1947305 26.851562 7.1386719 C 26.806716 7.0812118 26.752519 7.0394499 26.689453 7.015625 C 26.626387 6.9918001 26.557251 6.9804687 26.484375 6.9804688 z M 32.513672 6.9804688 C 32.440796 6.9804688 32.375819 6.9901451 32.318359 7.0097656 C 32.262301 7.0293862 32.208104 7.0680915 32.15625 7.1269531 C 32.110002 7.1816103 32.072951 7.2582159 32.044922 7.3535156 C 32.018294 7.4488153 32.005859 7.5685396 32.005859 7.7128906 C 32.005859 7.8418255 32.017191 7.9535284 32.041016 8.0488281 C 32.064841 8.1427264 32.100236 8.2179305 32.146484 8.2753906 C 32.191331 8.3300478 32.244976 8.371258 32.306641 8.3964844 C 32.369707 8.4217108 32.439648 8.4335938 32.519531 8.4335938 C 32.588203 8.4335938 32.655132 8.4228141 32.716797 8.4003906 C 32.779863 8.3765657 32.831555 8.3359072 32.875 8.28125 C 32.924051 8.220987 32.96055 8.1504942 32.984375 8.0664062 C 33.009601 7.9809168 33.023438 7.8628475 33.023438 7.7128906 C 33.023438 7.5741455 33.009601 7.4571795 32.984375 7.3632812 C 32.959149 7.269383 32.923753 7.1947305 32.878906 7.1386719 C 32.834059 7.0812118 32.781816 7.0394499 32.71875 7.015625 C 32.655684 6.9918001 32.586548 6.9804687 32.513672 6.9804688 z "
       transform="translate(0,1034.3622)"
       id="rect4209-8" />
  </g>
</svg>
